# xmcd
#
# Track frame offsets:
#  150
#  11608
#  21256
#  31067
#  42296
#  52812
#  63163
#  72373
#  81216
#  90595
#  102634
#  109839
#  118384
#  126383
#  135905
#  146525
#  157224
#  167743
#  177969
#  189601
#  202610
#  215321
#  222886
#  233838
#  244277
#
# Disc length: 3404 seconds
#
# Revision: 0
# Processed by: cddbd v1.5.1PL2 Copyright (c) Steve Scherf et al.
# Submitted via: Collectorz.com_Music_Collector 6.9
#
DISCID=620d4a19
DTITLE=Various Artist - Doo-Bop-Jivers - Volume 07
DYEAR=1997
DGENRE=Doo-Wop
TTITLE0=Gayles, The - My Boy Flat Top
TTITLE1=Flares, The - Huckle-Buck
TTITLE2=Mint Juleps, The - Vip-A-Dip
TTITLE3=BopTones, The - Pussy Cat
TTITLE4=Fox, Norman and The Rob Roys - Pizza Pie
TTITLE5=Brown, Jimmy - Hello
TTITLE6=Jackson, Bull Moose - Aw Shucks Baby
TTITLE7=Williams, Lew - Bop Bop Ba Doo Pop
TTITLE8=Caps, Nite - Snap Crackle And Pop
TTITLE9=Du-Mauriers, The - All Night Long
TTITLE10=Riley, Bop - I Think It's A Shame
TTITLE11=Hi-Liters, The - I Ain't Givin Up Nothin
TTITLE12=Casual Three, The - Be-Bop Way Marie
TTITLE13=Sam and The Rocking Five - I Still Love You All
TTITLE14=Boogie Boy, The - Bada
TTITLE15=Poets, The - Dead
TTITLE16=Palisades, The - Make The Night A Little Longer
TTITLE17=Marcels, The - One Last Kiss
TTITLE18=Dynamics, The - Misery
TTITLE19=Good Timers, The - See About Me
TTITLE20=Notes, The - Cha Jezebel
TTITLE21=Mello, The - Kings - But You Lied
TTITLE22=Dontells, The - Make A Change
TTITLE23=Five Keys, The - Me Make Um Pow Wow
TTITLE24=Lance, Rick - They Hanged A Certain Man
EXTD=
EXTT0=
EXTT1=
EXTT2=
EXTT3=
EXTT4=
EXTT5=
EXTT6=
EXTT7=
EXTT8=
EXTT9=
EXTT10=
EXTT11=
EXTT12=
EXTT13=
EXTT14=
EXTT15=
EXTT16=
EXTT17=
EXTT18=
EXTT19=
EXTT20=
EXTT21=
EXTT22=
EXTT23=
EXTT24=
PLAYORDER=
